<?xml version="1.0" encoding="iso-8859-1"?>
<!-- Generator: Adobe Illustrator 23.0.4, SVG Export Plug-In . SVG Version: 6.00 Build 0)  -->
<svg version="1.1" id="Layer_1" xmlns="http://www.w3.org/2000/svg" xmlns:xlink="http://www.w3.org/1999/xlink" x="0px" y="0px"
	 viewBox="0 0 841.89 1190.55" style="enable-background:new 0 0 841.89 1190.55;" xml:space="preserve">
<path style="fill:#544100;" d="M376.658,631.358l222.565-297.273l3.033,14.952L379.305,633.378c-0.575,0.74-1.647,0.859-2.371,0.265
	l0,0C376.246,633.078,376.124,632.071,376.658,631.358z"/>
<g>
	<path style="fill:#232631;" d="M360.547,621.717l14.235,51.592c0,0,20.887,16.102,48.733,7.359
		c27.846-8.743,39.316-27.378,39.316-27.378l-13.7-50.878c0,0-10.489-15.82-45.468-10.956
		C371.774,595.891,360.547,621.717,360.547,621.717z"/>
	
		<ellipse transform="matrix(0.9752 -0.2215 0.2215 0.9752 -125.5878 104.8988)" style="fill:#232631;" cx="404.951" cy="612.447" rx="45.305" ry="21.014"/>
	
		<ellipse transform="matrix(0.9752 -0.2215 0.2215 0.9752 -125.7275 104.9539)" style="fill:#E7E9EB;" cx="405.127" cy="613.097" rx="43.001" ry="21.014"/>
	
		<ellipse transform="matrix(0.9752 -0.2215 0.2215 0.9752 -136.1938 109.1212)" style="fill:#232631;" cx="418.476" cy="661.85" rx="45.262" ry="21.014"/>
	<path style="fill:#D06717;" d="M407.266,625.625c0,0,1.822-3.828,5.881-6.222s9.351-4.36,10.207-5.138
		c0.855-0.777,0.07-3.278,1.118-4.319c1.048-1.041,7.193-5.107,9.063-3.965c1.871,1.143,1.702,3.231,1.192,3.798
		c-0.509,0.567-1.857,5.467-3.385,7.168c-1.528,1.701-11.086,7.16-14.75,8.191c-3.664,1.031-9.094,1.228-9.094,1.228
		L407.266,625.625z"/>
	<path style="fill:#DFB905;" d="M398.114,618.147c0,0-5.786-3.546-6.8-4.148c-1.013-0.601-5.793-0.94-5.793-0.94l-4.216-2.047
		c0,0,6.637-7.753,10.478-8.653c3.841-0.899,8.719-2.737,8.719-2.737l9.825,0.516l2.705,2.752l0.909,2.895
		c0,0,4.372,3.686,1.56,4.97c-2.812,1.283-11.632,5.585-11.632,5.585L398.114,618.147z"/>
	<path style="fill:#D06717;" d="M399.691,623.469c-1.684-0.458-2.087-1.835-0.94-3.168c1.571-1.826,4.02-4.248,6.892-5.605
		c5.027-2.375,9.362-3.307,11.737-4.642c4.498-2.528,6.186-4.812,4.934-6.173c-1.252-1.361,3.792-1.055,4.956,0.903
		c1.165,1.958,4.033,5.841-9.865,11.48c-7.12,2.889-10.831,4.916-12.757,6.207C403.179,623.456,401.154,623.867,399.691,623.469
		L399.691,623.469z"/>
	<path style="fill:#476306;" d="M408.239,610.122c0,0-3.753,1.178-4.868-1.495c-1.114-2.674-1.213-6.491-0.119-7.384
		c1.094-0.893,3.547-3.587,3.547-3.587l3.366,1.967c0,0-3.728,2.27-3.416,4.508C407.06,606.369,408.239,610.122,408.239,610.122z"/>
</g>
<path style="fill:#544100;" d="M428.058,659.159l156.96-336.556l6.031,14.014L431.062,660.594c-0.411,0.842-1.436,1.178-2.266,0.745
	l0,0C428.007,660.927,427.681,659.967,428.058,659.159z"/>
</svg>
